# Blender 4.1.1
# www.blender.org
mtllib arrow.mtl
o RotateXArrow.obj
v 0.000000 -0.104000 -0.104000
v 0.000000 -0.104000 0.104000
v -0.000000 0.104000 0.104000
v -0.000000 0.104000 -0.104000
v -0.000000 0.104000 -0.104000
v -0.000000 0.104000 0.104000
v 0.000000 -0.104000 0.104000
v 0.000000 -0.104000 -0.104000
v 5.000000 0.104000 -0.104000
v 5.000000 0.104000 0.104000
v 5.000000 -0.104000 0.104000
v 5.000000 -0.104000 -0.104000
v 5.000000 0.000000 0.390000
v 5.000000 -0.337750 0.195000
v 5.000000 -0.337750 -0.195000
v 5.000000 -0.000000 -0.390000
v 5.000000 0.337750 -0.195000
v 5.000000 0.337750 0.195000
v 5.928064 0.000000 -0.000000
vn 0.5774 0.5774 -0.5773
vn 0.5774 0.5773 0.5774
vn 0.5774 -0.5774 0.5773
vn 0.5774 -0.5773 -0.5774
vn -0.5774 -0.5774 -0.5773
vn -0.5774 -0.5773 0.5774
vn -0.5774 0.5774 0.5773
vn -0.5774 0.5773 -0.5774
vn -0.5773 0.5774 0.5774
vn 0.5774 0.5774 0.5773
vn 0.5773 0.5774 -0.5774
vn -0.5774 0.5774 -0.5773
vn -0.5773 -0.5774 0.5774
vn 0.5774 -0.5773 0.5774
vn 0.5773 0.5774 0.5774
vn -0.5774 0.5773 0.5774
vn 0.5774 -0.5774 -0.5773
vn 0.5773 -0.5774 0.5774
vn -0.5774 -0.5774 0.5773
vn -0.5773 -0.5774 -0.5774
vn 0.5774 0.5773 -0.5774
vn 0.5773 -0.5774 -0.5774
vn -0.5774 -0.5773 -0.5774
vn -0.5773 0.5774 -0.5774
vn -0.3969 0.7949 0.4590
vn -0.3969 0.7949 -0.4589
vn -0.3969 0.0001 -0.9179
vn -0.3969 -0.7949 -0.4590
vn -0.3969 -0.7949 0.4589
vn -0.3969 -0.0001 0.9179
vn -0.1879 -0.8483 0.4950
vn 0.9759 0.1090 -0.1890
vn -0.1879 -0.0045 0.9822
vn -0.1879 -0.8528 -0.4872
vn 0.9759 0.2182 -0.0001
vn -0.1879 -0.8528 0.4872
vn 0.9759 0.1092 0.1889
vn -0.1879 -0.8483 -0.4950
vn -0.1879 -0.0045 -0.9822
vn 0.9759 -0.1090 0.1890
vn -0.1879 0.0045 -0.9822
vn -0.1879 0.8483 -0.4950
vn -0.1879 0.8528 0.4872
vn 0.9759 -0.2182 0.0001
vn -0.1879 0.8528 -0.4872
vn -0.1879 0.0045 0.9822
vn 0.9759 -0.1092 -0.1889
vn -0.1879 0.8483 0.4950
vt 0.525194 0.178200
vt 0.469306 0.178200
vt 0.469306 0.658463
vt 0.525194 0.658463
vt 0.406500 0.658463
vt 0.497250 0.658463
vt 0.588000 0.658463
vt 0.497250 0.908200
s 0
usemtl Default.001
f 4/1/1 3/1/2 2/2/3 1/2/4
f 8/1/5 7/1/6 6/2/7 5/2/8
f 6/2/9 10/3/10 9/3/11 5/2/12
f 7/1/13 11/4/14 10/3/15 6/2/16
f 12/4/17 11/4/18 7/1/19 8/1/20
f 9/3/21 12/4/22 8/1/23 5/2/24
f 10/3/2 11/4/3 12/4/4 9/3/1
f 18/5/25 17/5/26 16/6/27 15/7/28 14/7/29 13/6/30
f 14/7/31 19/8/32 13/6/33
f 15/7/34 19/8/35 14/7/36
f 19/8/37 15/7/38 16/6/39
f 19/8/40 16/6/41 17/5/42
f 18/5/43 19/8/44 17/5/45
f 13/6/46 19/8/47 18/5/48
